<svg width="61" height="61" viewBox="0 0 61 61" fill="none" xmlns="http://www.w3.org/2000/svg">
<rect width="61" height="61" rx="30.5" fill="#80BEDD"/>
<g clip-path="url(#clip0_6_6122)">
<path d="M16 20.625C16 19.6636 16.3819 18.7416 17.0617 18.0617C17.7416 17.3819 18.6636 17 19.625 17H41.375C42.3364 17 43.2584 17.3819 43.9383 18.0617C44.6181 18.7416 45 19.6636 45 20.625V35.125C45 36.0864 44.6181 37.0084 43.9383 37.6883C43.2584 38.3681 42.3364 38.75 41.375 38.75H34C33.5193 38.7501 23.0588 38.9411 22.7189 39.2811L17.5479 44.4521C17.4212 44.5791 17.2598 44.6656 17.0839 44.7008C16.9081 44.7359 16.7258 44.7181 16.5601 44.6496C16.3943 44.5811 16.2527 44.465 16.153 44.316C16.0533 44.1669 16 43.9916 16 43.8123V20.625ZM25.0625 27.875C25.0625 27.3943 24.8715 26.9333 24.5316 26.5934C24.1917 26.2535 23.7307 26.0625 23.25 26.0625C22.7693 26.0625 22.3083 26.2535 21.9684 26.5934C21.6285 26.9333 21.4375 27.3943 21.4375 27.875C21.4375 28.3557 21.6285 28.8167 21.9684 29.1566C22.3083 29.4965 22.7693 29.6875 23.25 29.6875C23.7307 29.6875 24.1917 29.4965 24.5316 29.1566C24.8715 28.8167 25.0625 28.3557 25.0625 27.875ZM32.3125 27.875C32.3125 27.3943 32.1215 26.9333 31.7816 26.5934C31.4417 26.2535 30.9807 26.0625 30.5 26.0625C30.0193 26.0625 29.5583 26.2535 29.2184 26.5934C28.8785 26.9333 28.6875 27.3943 28.6875 27.875C28.6875 28.3557 28.8785 28.8167 29.2184 29.1566C29.5583 29.4965 30.0193 29.6875 30.5 29.6875C30.9807 29.6875 31.4417 29.4965 31.7816 29.1566C32.1215 28.8167 32.3125 28.3557 32.3125 27.875ZM37.75 29.6875C38.2307 29.6875 38.6917 29.4965 39.0316 29.1566C39.3715 28.8167 39.5625 28.3557 39.5625 27.875C39.5625 27.3943 39.3715 26.9333 39.0316 26.5934C38.6917 26.2535 38.2307 26.0625 37.75 26.0625C37.2693 26.0625 36.8083 26.2535 36.4684 26.5934C36.1285 26.9333 35.9375 27.3943 35.9375 27.875C35.9375 28.3557 36.1285 28.8167 36.4684 29.1566C36.8083 29.4965 37.2693 29.6875 37.75 29.6875Z" fill="white"/>
</g>
<defs>
<clipPath id="clip0_6_6122">
<rect width="29" height="29" fill="white" transform="translate(16 17)"/>
</clipPath>
</defs>
</svg>
