<svg width="44" height="52" viewBox="0 0 44 52" fill="none" xmlns="http://www.w3.org/2000/svg">
<path d="M40.125 18.75H25.625V4.25H3.875V47.75H40.125V18.75ZM38.6243 15.125L29.25 5.75075V15.125H38.6243ZM2.0625 0.625H29.25L43.75 15.125V49.5625C43.75 50.0432 43.559 50.5042 43.2191 50.8441C42.8792 51.184 42.4182 51.375 41.9375 51.375H2.0625C1.5818 51.375 1.12078 51.184 0.780869 50.8441C0.44096 50.5042 0.25 50.0432 0.25 49.5625V2.4375C0.25 1.9568 0.44096 1.49578 0.780869 1.15587C1.12078 0.815959 1.5818 0.625 2.0625 0.625ZM20.1875 29.625V22.375H23.8125V29.625H31.0625V33.25H23.8125V40.5H20.1875V33.25H12.9375V29.625H20.1875Z" fill="#727272"/>
</svg>
