<svg width="14" height="20" viewBox="0 0 14 20" fill="none" xmlns="http://www.w3.org/2000/svg">
<path d="M2.8 2.19959e-07C2.05739 2.19959e-07 1.3452 0.30102 0.820101 0.836838C0.294999 1.37266 0 2.09938 0 2.85714V17.1429C0 17.9006 0.294999 18.6273 0.820101 19.1632C1.3452 19.699 2.05739 20 2.8 20H11.2C11.9426 20 12.6548 19.699 13.1799 19.1632C13.705 18.6273 14 17.9006 14 17.1429V6.30571C13.9995 5.73759 13.7779 5.19291 13.384 4.79143L9.3058 0.627143C9.1107 0.42819 8.8791 0.270405 8.62424 0.162798C8.36937 0.055192 8.09622 -0.000127299 7.8204 2.19959e-07H2.8ZM1.4 2.85714C1.4 2.47826 1.5475 2.1149 1.81005 1.84699C2.0726 1.57908 2.4287 1.42857 2.8 1.42857H7V5C7 5.56832 7.22125 6.11337 7.61508 6.51523C8.0089 6.91709 8.54305 7.14286 9.1 7.14286H12.6V17.1429C12.6 17.5217 12.4525 17.8851 12.1899 18.153C11.9274 18.4209 11.5713 18.5714 11.2 18.5714H2.8C2.4287 18.5714 2.0726 18.4209 1.81005 18.153C1.5475 17.8851 1.4 17.5217 1.4 17.1429V2.85714ZM12.3102 5.71429H9.1C8.91435 5.71429 8.7363 5.63903 8.60502 5.50508C8.47375 5.37112 8.4 5.18944 8.4 5V1.72429L12.3102 5.71429Z" fill="black"/>
</svg>
