<svg width="28" height="28" viewBox="0 0 28 28" fill="none" xmlns="http://www.w3.org/2000/svg">
<path d="M3.79005 2.77294L24.86 12.8499C25.073 12.9516 25.2528 13.1115 25.3787 13.3112C25.5046 13.5108 25.5714 13.7419 25.5714 13.9779C25.5714 14.2139 25.5046 14.4451 25.3787 14.6447C25.2528 14.8444 25.073 15.0043 24.86 15.1059L3.79005 25.1829C3.57405 25.2864 3.33288 25.3256 3.09523 25.296C2.85758 25.2663 2.63345 25.169 2.44952 25.0156C2.26558 24.8622 2.12958 24.6592 2.0577 24.4308C1.98582 24.2023 1.98108 23.958 2.04405 23.7269L4.15205 15.9989C4.17785 15.9042 4.23096 15.8192 4.30476 15.7545C4.37856 15.6898 4.46978 15.6482 4.56705 15.6349L14.777 14.2479C14.8197 14.2419 14.8601 14.2249 14.8943 14.1986C14.9284 14.1723 14.9552 14.1376 14.972 14.0979L14.99 14.0359C14.9979 13.9801 14.9867 13.9233 14.9582 13.8746C14.9297 13.826 14.8856 13.7884 14.833 13.7679L14.778 13.7529L4.57805 12.3659C4.48096 12.3525 4.38996 12.3109 4.31635 12.2462C4.24275 12.1814 4.18978 12.0965 4.16405 12.0019L2.04405 4.22994C1.98082 3.99881 1.98537 3.75437 2.05714 3.52574C2.12892 3.29712 2.26489 3.09394 2.44888 2.94041C2.63286 2.78688 2.8571 2.68947 3.09488 2.65978C3.33266 2.63009 3.57396 2.66937 3.79005 2.77294Z" fill="#80BEDD"/>
</svg>
